<svg width="131" height="115" viewBox="0 0 131 115" fill="none" xmlns="http://www.w3.org/2000/svg">
<path d="M8.60721 113.605L8.87749 113.98C8.44089 114.333 7.92113 114.499 7.35979 114.499H0.353436V91.6922C0.353436 91.1517 0.228694 90.6527 0 90.1953H8.06667V90.6735H2.01667V100.84H8.06667V101.318H2.01667V114H7.23505C7.73402 114.021 8.19141 113.896 8.60721 113.605Z" fill="#151515"/>
<path d="M28.0255 114.52H25.6762C25.9049 114.063 26.0296 113.564 26.0296 113.023V90.8606C26.0088 90.8606 25.988 90.8606 25.9672 90.8606L20.6241 113.876C20.541 114.333 20.2499 114.562 19.7509 114.562C19.3143 114.562 19.0233 114.333 18.9193 113.876L13.4722 90.8606C13.4514 90.8606 13.4307 90.8606 13.4099 90.8606V114.52H12.9317V91.6922C12.9317 91.1517 12.8069 90.6527 12.5782 90.1953H14.0752C14.3454 90.1953 14.6157 90.2993 14.8444 90.5072C15.0731 90.7151 15.2186 90.9646 15.3018 91.2764L20.3746 112.628L25.4475 91.027C25.593 90.3825 25.9672 90.0498 26.591 90.0498C26.9236 90.0498 27.1939 90.133 27.4018 90.3201C27.6305 90.5072 27.7344 90.7567 27.7344 91.0893V113.002C27.6721 113.564 27.7968 114.063 28.0255 114.52Z" fill="#151515"/>
<path d="M35.302 93.5631C37.7137 91.1514 40.6659 89.9248 44.0963 89.9248C47.5475 89.9248 50.479 91.1306 52.8907 93.5631C55.3024 95.9748 56.529 98.927 56.529 102.357C56.529 105.809 55.3231 108.74 52.8907 111.152C50.479 113.563 47.5268 114.79 44.0963 114.79C40.6451 114.79 37.7137 113.584 35.302 111.152C32.8903 108.74 31.6637 105.788 31.6637 102.357C31.6845 98.9062 32.8903 95.9748 35.302 93.5631ZM36.3415 110.715C38.2542 113.106 40.8323 114.312 44.0963 114.312C47.3604 114.312 49.9384 113.106 51.8512 110.715C53.7639 108.324 54.7202 105.538 54.7202 102.357C54.7202 99.1765 53.7639 96.4114 51.8512 93.9997C49.9384 91.6088 47.3604 90.403 44.0963 90.403C40.8323 90.403 38.2542 91.6088 36.3415 93.9997C34.4288 96.3906 33.4725 99.1765 33.4725 102.357C33.4725 105.538 34.4288 108.324 36.3415 110.715Z" fill="#151515"/>
<path d="M64.4917 90.694V113.023C64.4917 113.563 64.6165 114.062 64.8452 114.52H62.4751C62.7038 114.062 62.8285 113.563 62.8285 113.023V90.694H58.7952V90.2158H68.5251V90.694H64.4917Z" fill="#151515"/>
<path d="M73.8267 91.6922V113.023C73.8267 113.564 73.9514 114.063 74.1801 114.52H71.8308C72.0595 114.063 72.1842 113.564 72.1842 113.023V91.6922C72.1842 91.1517 72.0595 90.6527 71.8308 90.1953H74.2009C73.9514 90.6735 73.8267 91.1725 73.8267 91.6922Z" fill="#151515"/>
<path d="M81.4567 93.5631C83.8684 91.1514 86.8206 89.9248 90.251 89.9248C93.7022 89.9248 96.6337 91.1306 99.0453 93.5631C101.457 95.9748 102.684 98.927 102.684 102.357C102.684 105.809 101.478 108.74 99.0453 111.152C96.6337 113.563 93.6814 114.79 90.251 114.79C86.7998 114.79 83.8684 113.584 81.4567 111.152C79.045 108.74 77.8184 105.788 77.8184 102.357C77.8184 98.9062 79.045 95.9748 81.4567 93.5631ZM82.4962 110.715C84.4089 113.106 86.9869 114.312 90.251 114.312C93.5151 114.312 96.0931 113.106 98.0058 110.715C99.9185 108.324 100.875 105.538 100.875 102.357C100.875 99.1765 99.9185 96.4114 98.0058 93.9997C96.0931 91.6088 93.5151 90.403 90.251 90.403C86.9869 90.403 84.4089 91.6088 82.4962 93.9997C80.5835 96.3906 79.6271 99.1765 79.6271 102.357C79.6271 105.538 80.5835 108.324 82.4962 110.715Z" fill="#151515"/>
<path d="M109.087 91.2764L115.574 113.876C115.615 113.896 115.657 113.896 115.678 113.876V90.1953H116.156V113.647C116.156 114.312 115.782 114.645 115.012 114.645C114.389 114.645 113.973 114.291 113.765 113.605L107.237 90.8606C107.216 90.8606 107.195 90.8606 107.174 90.8606V114.52H106.696V91.6922C106.696 91.1517 106.571 90.6527 106.343 90.1953H107.86C108.463 90.1953 108.879 90.5695 109.087 91.2764Z" fill="#151515"/>
<path d="M125.241 90.4447C124.306 90.4447 123.62 90.7981 123.141 91.4842C122.663 92.1703 122.435 93.0019 122.435 93.9791C122.435 95.2473 122.85 96.5363 123.682 97.8253L128.505 105.227C129.607 106.931 130.169 108.532 130.169 110.029C130.169 111.443 129.732 112.586 128.838 113.46C127.944 114.333 126.759 114.769 125.283 114.769C123.807 114.769 122.58 114.354 121.624 113.522C120.667 112.69 120.189 111.651 120.189 110.424V109.551H121.956V110.237C121.956 111.401 122.247 112.358 122.809 113.127C123.37 113.896 124.202 114.27 125.283 114.27C126.343 114.27 127.133 113.896 127.653 113.148C128.173 112.399 128.443 111.422 128.443 110.258C128.443 108.907 127.923 107.451 126.884 105.892L122.06 98.4698C121.208 97.1184 120.771 95.7255 120.771 94.2701C120.771 93.0227 121.187 92.004 122.019 91.1931C122.85 90.3823 123.931 89.9873 125.241 89.9873C127.05 89.9873 128.36 90.6734 129.191 92.0456L128.194 92.6277C127.57 91.1724 126.572 90.4447 125.241 90.4447Z" fill="#151515"/>
<path d="M90.3757 68.3047C90.4173 68.2631 90.4797 68.2008 90.5213 68.1592C90.4797 68.2008 90.4173 68.2423 90.3757 68.3047Z" fill="url(#paint0_linear)"/>
<path d="M65.4688 80.8623C65.4688 80.8415 65.4688 80.8415 65.4688 80.8623C65.2817 80.8831 65.1154 80.9039 65.0322 80.9246C65.1778 80.9039 65.3233 80.8831 65.4688 80.8623Z" fill="url(#paint1_linear)"/>
<path d="M67.5063 80.4667C67.6103 80.4459 67.6935 80.4251 67.7974 80.4043C67.735 80.4251 67.6311 80.4459 67.5063 80.4667Z" fill="url(#paint2_linear)"/>
<path d="M90.6052 68.0968C90.6052 68.0758 90.6052 68.0758 90.6052 68.0968C90.5843 68.1178 90.5633 68.1387 90.5214 68.1807C90.5633 68.1178 90.5843 68.0968 90.6052 68.0968Z" fill="url(#paint3_linear)"/>
<path d="M90.6052 68.0968C90.6052 68.0758 90.6052 68.0758 90.6052 68.0968C90.5843 68.1178 90.5633 68.1387 90.5214 68.1807C90.5633 68.1178 90.5843 68.0968 90.6052 68.0968Z" fill="url(#paint4_linear)"/>
<path d="M67.9022 80.3838C67.8812 80.3838 67.8393 80.4048 67.7974 80.4048C67.8393 80.4048 67.8812 80.4048 67.9022 80.3838Z" fill="url(#paint5_linear)"/>
<path d="M67.9022 80.3838C67.8812 80.3838 67.8393 80.4048 67.7974 80.4048C67.8393 80.4048 67.8812 80.4048 67.9022 80.3838Z" fill="url(#paint6_linear)"/>
<path d="M66.3628 49.7595C66.2589 49.51 66.1549 49.2606 66.0302 49.0111C65.2401 48.9279 64.4293 48.824 63.6393 48.6992C63.9096 49.3437 64.1798 49.9882 64.4709 50.6327C69.4814 61.4645 78.0886 68.4709 88.359 70.1341C88.359 70.1341 89.7728 68.8451 90.3549 68.3045C80.0637 67.265 71.3317 60.5289 66.3628 49.7595Z" fill="url(#paint7_linear)"/>
<path d="M66.3628 49.7595C66.2589 49.51 66.1549 49.2606 66.0302 49.0111C65.2401 48.9279 64.4293 48.824 63.6393 48.6992C63.9096 49.3437 64.1798 49.9882 64.4709 50.6327C69.4814 61.4645 78.0886 68.4709 88.359 70.1341C88.359 70.1341 89.7728 68.8451 90.3549 68.3045C80.0637 67.265 71.3317 60.5289 66.3628 49.7595Z" fill="url(#paint8_linear)"/>
<path d="M61.0198 67.5356C55.7183 63.5022 50.9781 62.4004 45.1568 63.8141C39.0236 65.311 36.9654 64.6249 36.7367 64.0636C36.508 63.5023 36.3625 62.5459 36.2377 61.6103C36.0298 60.155 35.8219 58.6789 35.1774 57.7225C34.8656 57.2651 34.5537 56.9117 34.325 56.6206C33.8468 56.0385 33.7429 55.893 33.7844 55.7682C33.9924 54.9782 34.3458 54.3961 34.3458 54.3961C34.5745 54.001 34.5537 53.5229 34.2418 53.1694C33.7013 52.5249 33.0568 51.7349 32.7865 51.3399C32.8489 51.1736 32.932 50.9241 33.0152 50.7577C33.4518 49.6766 33.8884 48.5332 32.9944 47.9095C30.3332 46.0591 28.7948 44.0009 28.8987 43.4187C29.0027 43.1277 29.8551 42.4208 30.4164 41.9634C32.0173 40.6536 33.9924 39.0112 34.1379 36.6411C34.1795 36.1213 34.1795 35.56 34.2003 34.9155C34.3042 31.6098 34.4497 27.0983 36.6327 23.1689C38.7534 19.3435 40.8324 17.1605 42.8698 15.0607C44.4707 13.3766 46.0092 11.7966 47.4229 9.53043C49.003 7.01479 49.4812 4.64469 48.7743 2.85672C48.4209 1.94194 47.5685 0.736099 45.5726 0.195549C44.0549 -0.220259 42.3917 0.0292259 40.874 0.923212C38.4623 2.33696 36.5911 5.16445 35.6348 8.92751C34.9903 11.4639 34.6992 14.1251 34.7616 16.8279C34.8032 18.3663 34.9695 19.9256 35.2398 21.4433C35.0942 21.672 34.9695 21.9215 34.824 22.171C32.4123 26.537 32.246 31.5474 32.142 34.8531C32.1212 35.456 32.1004 36.0174 32.0796 36.5163C31.9965 37.9925 30.3956 39.323 29.1066 40.3834C27.9631 41.3189 27.0692 42.0674 26.882 43.0445C26.4454 45.373 30.0214 48.3045 31.3728 49.3024C31.2896 49.5311 31.1857 49.8222 31.1025 50.0093C30.8114 50.7785 30.6035 51.2775 30.7283 51.7557C30.7698 51.9428 30.8738 52.3378 32.246 54.0011C32.1004 54.3337 31.9341 54.7495 31.8094 55.2485C31.4975 56.4543 32.1628 57.2651 32.7657 57.972C33.0152 58.2631 33.2439 58.5541 33.4934 58.9076C33.8676 59.4481 34.0547 60.7579 34.221 61.9222C34.3874 63.0449 34.5329 64.0844 34.8656 64.8952C35.7803 67.099 39.3355 67.4108 45.6973 65.8516C50.9157 64.5834 54.9906 65.5397 59.814 69.1988C63.3899 71.9224 65.0116 78.3674 65.5106 80.8414C66.0927 80.7375 67.0283 80.5712 67.548 80.4672C66.9659 77.7437 65.2195 70.7165 61.0198 67.5356ZM37.6307 9.40569C38.4623 6.20397 39.9592 3.81307 41.9135 2.69039C42.953 2.08747 44.0341 1.90036 45.0113 2.17063C45.9468 2.42012 46.5497 2.8983 46.82 3.58438C47.2566 4.72785 46.8408 6.47424 45.635 8.38696C44.346 10.466 42.8906 11.9837 41.3521 13.5846C39.98 15.0191 38.4831 16.5784 36.9446 18.7198C36.8822 18.0545 36.8406 17.3892 36.8198 16.7239C36.7575 14.2291 37.0277 11.755 37.6307 9.40569Z" fill="url(#paint9_linear)"/>
<path d="M61.0198 67.5356C55.7183 63.5022 50.9781 62.4004 45.1568 63.8141C39.0236 65.311 36.9654 64.6249 36.7367 64.0636C36.508 63.5023 36.3625 62.5459 36.2377 61.6103C36.0298 60.155 35.8219 58.6789 35.1774 57.7225C34.8656 57.2651 34.5537 56.9117 34.325 56.6206C33.8468 56.0385 33.7429 55.893 33.7844 55.7682C33.9924 54.9782 34.3458 54.3961 34.3458 54.3961C34.5745 54.001 34.5537 53.5229 34.2418 53.1694C33.7013 52.5249 33.0568 51.7349 32.7865 51.3399C32.8489 51.1736 32.932 50.9241 33.0152 50.7577C33.4518 49.6766 33.8884 48.5332 32.9944 47.9095C30.3332 46.0591 28.7948 44.0009 28.8987 43.4187C29.0027 43.1277 29.8551 42.4208 30.4164 41.9634C32.0173 40.6536 33.9924 39.0112 34.1379 36.6411C34.1795 36.1213 34.1795 35.56 34.2003 34.9155C34.3042 31.6098 34.4497 27.0983 36.6327 23.1689C38.7534 19.3435 40.8324 17.1605 42.8698 15.0607C44.4707 13.3766 46.0092 11.7966 47.4229 9.53043C49.003 7.01479 49.4812 4.64469 48.7743 2.85672C48.4209 1.94194 47.5685 0.736099 45.5726 0.195549C44.0549 -0.220259 42.3917 0.0292259 40.874 0.923212C38.4623 2.33696 36.5911 5.16445 35.6348 8.92751C34.9903 11.4639 34.6992 14.1251 34.7616 16.8279C34.8032 18.3663 34.9695 19.9256 35.2398 21.4433C35.0942 21.672 34.9695 21.9215 34.824 22.171C32.4123 26.537 32.246 31.5474 32.142 34.8531C32.1212 35.456 32.1004 36.0174 32.0796 36.5163C31.9965 37.9925 30.3956 39.323 29.1066 40.3834C27.9631 41.3189 27.0692 42.0674 26.882 43.0445C26.4454 45.373 30.0214 48.3045 31.3728 49.3024C31.2896 49.5311 31.1857 49.8222 31.1025 50.0093C30.8114 50.7785 30.6035 51.2775 30.7283 51.7557C30.7698 51.9428 30.8738 52.3378 32.246 54.0011C32.1004 54.3337 31.9341 54.7495 31.8094 55.2485C31.4975 56.4543 32.1628 57.2651 32.7657 57.972C33.0152 58.2631 33.2439 58.5541 33.4934 58.9076C33.8676 59.4481 34.0547 60.7579 34.221 61.9222C34.3874 63.0449 34.5329 64.0844 34.8656 64.8952C35.7803 67.099 39.3355 67.4108 45.6973 65.8516C50.9157 64.5834 54.9906 65.5397 59.814 69.1988C63.3899 71.9224 65.0116 78.3674 65.5106 80.8414C66.0927 80.7375 67.0283 80.5712 67.548 80.4672C66.9659 77.7437 65.2195 70.7165 61.0198 67.5356ZM37.6307 9.40569C38.4623 6.20397 39.9592 3.81307 41.9135 2.69039C42.953 2.08747 44.0341 1.90036 45.0113 2.17063C45.9468 2.42012 46.5497 2.8983 46.82 3.58438C47.2566 4.72785 46.8408 6.47424 45.635 8.38696C44.346 10.466 42.8906 11.9837 41.3521 13.5846C39.98 15.0191 38.4831 16.5784 36.9446 18.7198C36.8822 18.0545 36.8406 17.3892 36.8198 16.7239C36.7575 14.2291 37.0277 11.755 37.6307 9.40569Z" fill="url(#paint10_linear)"/>
<path d="M64.9698 80.9253C64.9698 80.9253 64.9908 80.9253 65.0328 80.9043C65.0118 80.9253 64.9908 80.9253 64.9698 80.9253Z" fill="url(#paint11_linear)"/>
<path d="M64.9698 80.9253C64.9698 80.9253 64.9908 80.9253 65.0328 80.9043C65.0118 80.9253 64.9908 80.9253 64.9698 80.9253Z" fill="url(#paint12_linear)"/>
<path d="M94.0349 36.059C99.1909 27.7013 98.3593 20.9652 96.7792 16.7864C94.9705 12.0254 91.145 8.13756 87.0285 6.91092C85.1574 6.34958 78.5877 4.8111 72.0595 8.63653C66.7995 11.7135 63.2236 17.3061 61.4564 25.248C60.1882 30.9446 60.3337 37.1817 61.8722 43.2941C62.0385 43.9594 62.2256 44.6039 62.4335 45.2484C58.6289 44.4583 55.0737 43.1693 52.1215 41.6101C45.9052 38.3044 41.1026 32.7949 38.6285 26.0797C38.2959 25.1441 38.0048 24.2085 37.7554 23.2729C37.6722 23.3977 37.6098 23.5224 37.5267 23.668C37.0901 24.4788 36.7366 25.3104 36.4456 26.142C36.5287 26.3707 36.5911 26.5786 36.6743 26.8073C39.3354 34.0008 44.4706 39.9053 51.1444 43.4604C56.9033 46.5166 63.5978 48.2214 70.1052 48.2214C79.6688 48.2006 88.8165 44.5207 94.0349 36.059ZM64.7621 45.6642C64.4502 44.7078 64.1383 43.7515 63.9096 42.7743C62.4335 36.9738 62.3088 31.0693 63.4938 25.6846C65.1363 18.3248 68.3796 13.1896 73.1198 10.4037C78.9203 7.01488 84.7832 8.36625 86.4464 8.86522C89.3155 9.73842 93.037 12.7322 94.8457 17.4932C96.2803 21.2355 96.9871 27.3063 92.2677 34.9571C86.1346 44.9157 74.887 47.1611 64.7621 45.6642Z" fill="url(#paint13_linear)"/>
<defs>
<linearGradient id="paint0_linear" x1="90.3785" y1="68.1985" x2="90.5034" y2="68.2724" gradientUnits="userSpaceOnUse">
<stop stop-color="#B06728"/>
<stop offset="0.1652" stop-color="#CB9258"/>
<stop offset="0.2507" stop-color="#DAAA74"/>
<stop offset="0.4802" stop-color="#D08F3E"/>
<stop offset="1" stop-color="#B06728"/>
</linearGradient>
<linearGradient id="paint1_linear" x1="64.9057" y1="80.6755" x2="65.6064" y2="81.0898" gradientUnits="userSpaceOnUse">
<stop stop-color="#B06728"/>
<stop offset="0.1652" stop-color="#CB9258"/>
<stop offset="0.2507" stop-color="#DAAA74"/>
<stop offset="0.4802" stop-color="#D08F3E"/>
<stop offset="1" stop-color="#B06728"/>
</linearGradient>
<linearGradient id="paint2_linear" x1="67.4293" y1="80.3072" x2="67.8772" y2="80.572" gradientUnits="userSpaceOnUse">
<stop stop-color="#B06728"/>
<stop offset="0.1652" stop-color="#CB9258"/>
<stop offset="0.2507" stop-color="#DAAA74"/>
<stop offset="0.4802" stop-color="#D08F3E"/>
<stop offset="1" stop-color="#B06728"/>
</linearGradient>
<linearGradient id="paint3_linear" x1="-2.38197" y1="13.1705" x2="112.397" y2="81.0205" gradientUnits="userSpaceOnUse">
<stop stop-color="#B06728"/>
<stop offset="0.1652" stop-color="#CB9258"/>
<stop offset="0.2507" stop-color="#DAAA74"/>
<stop offset="0.4802" stop-color="#D08F3E"/>
<stop offset="1" stop-color="#B06728"/>
</linearGradient>
<linearGradient id="paint4_linear" x1="8.42923" y1="19.5624" x2="106.491" y2="77.5301" gradientUnits="userSpaceOnUse">
<stop stop-color="#B06728"/>
<stop offset="0.1652" stop-color="#CB9258"/>
<stop offset="0.2507" stop-color="#DAAA74"/>
<stop offset="0.4802" stop-color="#D08F3E"/>
<stop offset="1" stop-color="#B06728"/>
</linearGradient>
<linearGradient id="paint5_linear" x1="-13.551" y1="32.2576" x2="101.256" y2="100.104" gradientUnits="userSpaceOnUse">
<stop stop-color="#B06728"/>
<stop offset="0.1652" stop-color="#CB9258"/>
<stop offset="0.2507" stop-color="#DAAA74"/>
<stop offset="0.4802" stop-color="#D08F3E"/>
<stop offset="1" stop-color="#B06728"/>
</linearGradient>
<linearGradient id="paint6_linear" x1="-2.73881" y1="38.6519" x2="95.3464" y2="96.6168" gradientUnits="userSpaceOnUse">
<stop stop-color="#B06728"/>
<stop offset="0.1652" stop-color="#CB9258"/>
<stop offset="0.2507" stop-color="#DAAA74"/>
<stop offset="0.4802" stop-color="#D08F3E"/>
<stop offset="1" stop-color="#B06728"/>
</linearGradient>
<linearGradient id="paint7_linear" x1="-1.81172" y1="14.0189" x2="111.984" y2="81.2926" gradientUnits="userSpaceOnUse">
<stop stop-color="#B06728"/>
<stop offset="0.1652" stop-color="#CB9258"/>
<stop offset="0.2507" stop-color="#DAAA74"/>
<stop offset="0.4802" stop-color="#D08F3E"/>
<stop offset="1" stop-color="#B06728"/>
</linearGradient>
<linearGradient id="paint8_linear" x1="8.90724" y1="20.3557" x2="106.128" y2="77.8311" gradientUnits="userSpaceOnUse">
<stop stop-color="#B06728"/>
<stop offset="0.1652" stop-color="#CB9258"/>
<stop offset="0.2507" stop-color="#DAAA74"/>
<stop offset="0.4802" stop-color="#D08F3E"/>
<stop offset="1" stop-color="#B06728"/>
</linearGradient>
<linearGradient id="paint9_linear" x1="0.88282" y1="9.46147" x2="114.678" y2="76.7352" gradientUnits="userSpaceOnUse">
<stop stop-color="#B06728"/>
<stop offset="0.1652" stop-color="#CB9258"/>
<stop offset="0.2507" stop-color="#DAAA74"/>
<stop offset="0.4802" stop-color="#D08F3E"/>
<stop offset="1" stop-color="#B06728"/>
</linearGradient>
<linearGradient id="paint10_linear" x1="11.6018" y1="15.7983" x2="108.823" y2="73.2737" gradientUnits="userSpaceOnUse">
<stop stop-color="#B06728"/>
<stop offset="0.1652" stop-color="#CB9258"/>
<stop offset="0.2507" stop-color="#DAAA74"/>
<stop offset="0.4802" stop-color="#D08F3E"/>
<stop offset="1" stop-color="#B06728"/>
</linearGradient>
<linearGradient id="paint11_linear" x1="-14.5" y1="33.9065" x2="100.304" y2="101.749" gradientUnits="userSpaceOnUse">
<stop stop-color="#B06728"/>
<stop offset="0.1652" stop-color="#CB9258"/>
<stop offset="0.2507" stop-color="#DAAA74"/>
<stop offset="0.4802" stop-color="#D08F3E"/>
<stop offset="1" stop-color="#B06728"/>
</linearGradient>
<linearGradient id="paint12_linear" x1="-3.68826" y1="40.3008" x2="94.3951" y2="98.2623" gradientUnits="userSpaceOnUse">
<stop stop-color="#B06728"/>
<stop offset="0.1652" stop-color="#CB9258"/>
<stop offset="0.2507" stop-color="#DAAA74"/>
<stop offset="0.4802" stop-color="#D08F3E"/>
<stop offset="1" stop-color="#B06728"/>
</linearGradient>
<linearGradient id="paint13_linear" x1="11.743" y1="-8.91115" x2="125.539" y2="58.3632" gradientUnits="userSpaceOnUse">
<stop stop-color="#B06728"/>
<stop offset="0.1652" stop-color="#CB9258"/>
<stop offset="0.2507" stop-color="#DAAA74"/>
<stop offset="0.4802" stop-color="#D08F3E"/>
<stop offset="1" stop-color="#B06728"/>
</linearGradient>
</defs>
</svg>
